Main Krishna Hoon 2013 Hindi Movies HDDVD Rip XviD ESubs New Source Sample Included ~ rDX

Screen Shots :
 
http://myimghosting.serveftp.com/13/MainKrishnaHoon.html
 
http://myimghost.cwahi.net/MainKrishnaHoon.html


Format                                   : AVI
Format/Info                              : Audio Video Interleave
File size                                : 682 MiB
Duration                                 : 1h 59mn
Overall bit rate                         : 797 Kbps
Writing library                          : MPlayer

Video
ID                                       : 0
Format                                   : MPEG-4 Visual
Format profile                           : Advanced Simple@L5
Format settings, BVOP                    : 3
Format settings, QPel                    : No
Format settings, GMC                     : No warppoints
Format settings, Matrix                  : Default (MPEG)
Codec ID                                 : XVID
Codec ID/Hint                            : XviD
Duration                                 : 1h 59mn
Bit rate                                 : 663 Kbps
Width                                    : 688 pixels
Height                                   : 304 pixels
Display aspect ratio                     : 2.25:1
Frame rate                               : 29.970 fps
Color space                              : YUV
Chroma subsampling                       : 4:2:0
Bit depth                                : 8 bits
Scan type                                : Progressive
Compression mode                         : Lossy
Bits/(Pixel*Frame)                       : 0.106
Stream size                              : 567 MiB (83%)
Writing library                          : XviD 1.2.1 (UTC 2008-12-04)

Audio
ID                                       : 1
Format                                   : AC-3
Format/Info                              : Audio Coding 3
Mode extension                           : CM (complete main)
Format settings, Endianness              : Big
Codec ID                                 : 2000
Duration                                 : 1h 59mn
Bit rate mode                            : Constant
Bit rate                                 : 128 Kbps
Channel(s)                               : 6 channels
Channel positions                        : Front: L C R, Side: L R, LFE
Sampling rate                            : 48.0 KHz
Bit depth                                : 16 bits
Compression mode                         : Lossy
Stream size                              : 109 MiB (16%)
Alignment                                : Split accross interleaves
Interleave, duration                     : 500 ms (14.98 video frames)
Interleave, preload duration             : 500 ms